<?xml version="1.0" encoding="UTF-8"?>
<!DOCTYPE svg PUBLIC "-//W3C//DTD SVG 1.1//EN" "http://www.w3.org/Graphics/SVG/1.1/DTD/svg11.dtd">
<!-- Creator: CorelDRAW X6 -->
<svg xmlns="http://www.w3.org/2000/svg" xml:space="preserve" width="4.52778in" height="1.95833in" version="1.1" style="shape-rendering:geometricPrecision; text-rendering:geometricPrecision; image-rendering:optimizeQuality; fill-rule:evenodd; clip-rule:evenodd"
viewBox="0 0 4528 1958"
 xmlns:xlink="http://www.w3.org/1999/xlink">
 <defs>
  <style type="text/css">
   <![CDATA[
    .str0 {stroke:#3E6DB3;stroke-width:27.7795}
    .str1 {stroke:#FEFEFE;stroke-width:27.7795}
    .str2 {stroke:#FEFEFE;stroke-width:41.6654}
    .fil1 {fill:none;fill-rule:nonzero}
    .fil0 {fill:#282828;fill-rule:nonzero}
    .fil3 {fill:#3E6DB3;fill-rule:nonzero}
    .fil2 {fill:#FEFEFE;fill-rule:nonzero}
   ]]>
  </style>
 </defs>
 <g id="Layer_x0020_1">
  <metadata id="CorelCorpID_0Corel-Layer"/>
  <path class="fil0" d="M369 1353c57,-96 127,-207 127,-207 0,0 -139,-133 9,-314 132,-161 464,-68 464,-68l865 0c0,0 1436,-1199 2672,-593 -559,588 -561,593 -561,593l219 0 0 687 -907 0 -467 466 30 -185 -1861 0c0,-94 0,-198 0,-292 -397,91 -572,-89 -595,-105l6 16z"/>
  <path class="fil1 str0" d="M369 1353c57,-96 127,-207 127,-207 0,0 -139,-133 9,-314 132,-161 464,-68 464,-68l865 0c0,0 1436,-1199 2672,-593 -559,588 -561,593 -561,593l219 0 0 687 -907 0 -467 466 30 -185 -1861 0c0,-94 0,-198 0,-292 -397,91 -572,-89 -595,-105"/>
  <polygon class="fil2" points="1090,1488 1090,1528 1188,1528 1188,1575 1090,1575 1090,1660 1021,1660 1021,1440 1194,1440 1194,1488 "/>
  <polygon class="fil2" points="1227,1660 1227,1440 1296,1440 1296,1604 1381,1604 1381,1660 "/>
  <path class="fil2" d="M1516 1503l-24 78 47 0 -23 -78zm47 157l-10 -31 -77 0 -10 31 -75 0 84 -220 79 0 82 220 -75 0z"/>
  <polygon class="fil2" points="1802,1660 1729,1532 1730,1660 1665,1660 1665,1440 1739,1440 1813,1568 1812,1440 1877,1440 1877,1660 "/>
  <path class="fil2" d="M2038 1498c-7,-4 -12,-6 -26,-6l-26 0 0 118 26 0c7,0 13,-1 20,-4 26,-12 25,-52 25,-55 0,-2 1,-39 -20,-52zm87 86c-3,14 -15,58 -61,72 -18,5 -38,5 -56,5l-92 0 0 -220 75 0c10,0 20,0 29,1 29,1 56,4 78,25 14,14 30,39 30,83 0,16 -2,28 -3,34z"/>
  <polygon class="fil2" points="2162,1660 2162,1440 2336,1440 2336,1488 2231,1488 2231,1521 2329,1521 2329,1569 2231,1569 2231,1612 2345,1612 2345,1660 "/>
  <path class="fil2" d="M2502 1496c-2,-3 -5,-5 -7,-6 -7,-4 -15,-4 -23,-4l-28 0 0 51 29 0c13,0 27,-2 32,-16 0,-1 2,-5 2,-10 0,-5 -2,-11 -4,-16zm5 164l-43 -78 -20 0 0 78 -70 0 0 -220 119 0c6,0 13,0 19,1 10,1 38,3 54,30 4,7 10,20 10,40 0,21 -8,40 -26,52 -5,3 -9,5 -19,9l54 89 -78 0z"/>
  <path class="fil2" d="M2781 1646c-28,21 -65,20 -75,20 -32,0 -63,-5 -89,-25 -10,-7 -16,-14 -23,-24l53 -34c5,7 7,11 11,13 12,11 35,16 51,16 20,0 33,-6 33,-17 0,-3 -1,-4 -2,-5 -2,-3 -4,-6 -11,-8 -8,-3 -22,-5 -41,-9 -30,-6 -46,-13 -57,-23 -7,-6 -19,-21 -19,-45 0,-6 0,-19 8,-33 22,-41 81,-40 89,-40 11,0 51,1 82,24 7,5 11,9 17,15l-44 36c-3,-4 -4,-6 -6,-7 -13,-12 -35,-15 -51,-15 -2,0 -10,0 -17,3 -1,1 -9,4 -9,12 0,4 2,8 6,10 6,3 19,6 25,7 8,1 28,4 50,11 14,4 48,17 48,60 0,33 -19,50 -29,58z"/>
  <path class="fil3" d="M990 1215c-1,94 -61,172 -235,172 -102,0 -195,-22 -255,-68l86 -135c49,40 141,52 169,52 16,0 35,-2 34,-22 -1,-13 -19,-22 -34,-26 -118,-28 -227,-74 -227,-193 0,-88 66,-162 227,-162 73,0 147,16 218,49l-81 131c-43,-27 -106,-42 -137,-42 -30,0 -45,8 -45,24 0,12 1,14 46,26 119,32 230,60 234,193l1 1z"/>
  <path class="fil1 str1" d="M990 1215c-1,94 -61,172 -235,172 -102,0 -195,-22 -255,-68l86 -135c49,40 141,52 169,52 16,0 35,-2 34,-22 -1,-13 -19,-22 -34,-26 -118,-28 -227,-74 -227,-193 0,-88 66,-162 227,-162 73,0 147,16 218,49l-81 131c-43,-27 -106,-42 -137,-42 -30,0 -45,8 -45,24 0,12 1,14 46,26 119,32 230,60 234,193l1 1z"/>
  <polygon class="fil3" points="1360,1371 1206,1190 1206,1371 1036,1371 1036,851 1206,851 1206,1018 1344,851 1560,851 1337,1097 1578,1371 "/>
  <polygon class="fil1 str1" points="1360,1371 1206,1190 1206,1371 1036,1371 1036,851 1206,851 1206,1018 1344,851 1560,851 1337,1097 1578,1371 "/>
  <polygon class="fil3" points="1828,1371 1828,1120 1614,851 1838,851 1913,960 1988,851 2211,851 1998,1120 1998,1371 "/>
  <polygon class="fil1 str1" points="1828,1371 1828,1120 1614,851 1838,851 1913,960 1988,851 2211,851 1998,1120 1998,1371 "/>
  <path class="fil3" d="M2402 992l0 239c89,0 147,-25 149,-120 0,-79 -53,-120 -149,-120zm234 315c-55,45 -114,63 -193,63l-211 0 0 -520 211 0c72,0 137,22 193,64 63,49 96,115 96,197 0,78 -37,146 -96,195z"/>
  <path class="fil1 str1" d="M2402 992l0 239c89,0 147,-25 149,-120 0,-79 -53,-120 -149,-120zm234 315c-55,45 -114,63 -193,63l-211 0 0 -520 211 0c72,0 137,22 193,64 63,49 96,115 96,197 0,78 -37,146 -96,195z"/>
  <polygon class="fil3" points="2785,1371 2956,1371 2956,851 2785,851 "/>
  <polygon class="fil1 str1" points="2785,1371 2956,1371 2956,851 2785,851 "/>
  <polygon class="fil3" points="3690,1371 3690,851 4081,851 4081,991 3861,991 3861,1049 4065,1049 4066,1179 3861,1179 3861,1234 4081,1235 4081,1371 "/>
  <polygon class="fil1 str1" points="3690,1371 3690,851 4081,851 4081,991 3861,991 3861,1049 4065,1049 4066,1179 3861,1179 3861,1234 4081,1235 4081,1371 "/>
  <path class="fil3" d="M2171 643c0,0 1164,-876 2174,-435 -815,848 -905,920 -1435,1479 127,-621 181,-884 181,-884 0,0 -129,-155 -676,-69 602,-241 1022,-186 1022,-186 0,0 -80,93 -144,422 82,-106 398,-447 523,-567 -199,-155 -1100,71 -1644,239z"/>
  <path class="fil1 str2" d="M2171 643c0,0 1164,-876 2174,-435 -815,848 -905,920 -1435,1479 127,-621 181,-884 181,-884 0,0 -129,-155 -676,-69 602,-241 1022,-186 1022,-186 0,0 -80,93 -144,422 82,-106 398,-447 523,-567 -199,-155 -1100,71 -1644,239"/>
 </g>
</svg>
